<svg xmlns="http://www.w3.org/2000/svg" width="16" height="16" stroke="currentColor" stroke-width="0.5" fill="none" viewBox="0 0 16 16">
<path fill-rule="evenodd" clip-rule="evenodd" d="M8.909 3.5C8.181 3.5 7.591 4.09 7.591 4.818V5.318L5.318 5.318L5.318 7.591H4.818C4.09 7.591 3.5 8.181 3.5 8.909C3.5 9.637 4.09 10.227 4.818 10.227H5.318L5.318 12.5L12.5 12.5V11.173C11.793 10.945 11.348 10.284 11.348 8.909C11.348 7.535 11.793 6.874 12.5 6.645V5.318L10.227 5.318V4.818C10.227 4.09 9.637 3.5 8.909 3.5ZM6.645 4.318C6.874 3.278 7.535 2.5 8.909 2.5C10.284 2.5 10.945 3.278 11.173 4.318L13.5 4.318V7.591L13 7.591C12.272 7.591 11.682 8.181 11.682 8.909C11.682 9.637 12.272 10.227 13 10.227H13.5V13.5L4.318 13.5L4.318 11.173C3.278 10.945 2.5 10.284 2.5 8.909C2.5 7.535 3.278 6.874 4.318 6.645L4.318 4.318L6.645 4.318Z"/>
</svg>