<svg xmlns="http://www.w3.org/2000/svg" width="100" height="100" viewBox="100.5 102.5 299 299"><defs><linearGradient id="light" x1="0" y1="0" x2="1" y2="1"><stop offset="0" stop-color="#34acff"/><stop offset="1" stop-color="#1595ed"/></linearGradient><linearGradient id="dark" x1="0" y1="0" x2="1" y2="1"><stop offset="0" stop-color="#2778bf"/><stop offset="1" stop-color="#216098"/></linearGradient></defs><g><circle cx="250" cy="252" r="140" fill="url(#light)" stroke="#0d0d0d" stroke-width="11"/><g transform="translate(225.0 128.3) scale(2.08)" fill="#0d0d0d"><rect x="4" y="6" width="16" height="2.6" rx="1.3"/><rect x="4" y="10.7" width="16" height="2.6" rx="1.3"/><rect x="4" y="15.4" width="16" height="2.6" rx="1.3"/></g><g transform="translate(126.3 227.0) scale(2.08)" fill="#0d0d0d"><rect x="3" y="6" width="2.6" height="12" rx="1"/><path d="M12.5 6.4v11.2L6 12z"/><path d="M20 6.4v11.2L13.5 12z"/></g><g transform="translate(323.7 227.0) scale(2.08)" fill="#0d0d0d"><rect x="18.4" y="6" width="2.6" height="12" rx="1"/><path d="M11.5 6.4v11.2L18 12z"/><path d="M4 6.4v11.2L10.5 12z"/></g><g transform="translate(225.0 325.7) scale(2.08)" fill="#0d0d0d"><path d="M2.5 6.2v11.6L11 12z"/><rect x="13.5" y="6.2" width="2.8" height="11.6" rx="1"/><rect x="18.4" y="6.2" width="2.8" height="11.6" rx="1"/></g><rect x="197" y="199" width="106" height="106" rx="36.04" fill="url(#dark)" stroke="#0d0d0d" stroke-width="10"/><g transform="translate(219.73 221.73) scale(2.61)"><path d="M9 17.2V5.6l11-2.6v11.4" fill="none" stroke="#ecf6ff" stroke-width="2.4" stroke-linejoin="round"/><path d="M9 5.6l11-2.6v3.2L9 8.8z" fill="#ecf6ff"/><ellipse cx="6.4" cy="17.4" rx="3.2" ry="2.6" transform="rotate(-18 6.4 17.4)" fill="#ecf6ff"/><ellipse cx="17.4" cy="14.6" rx="3.2" ry="2.6" transform="rotate(-18 17.4 14.6)" fill="#ecf6ff"/></g></g></svg>
