<?xml version="1.0" encoding="UTF-8"?>
<svg version="1.1" xmlns="http://www.w3.org/2000/svg" width="1080" height="1080">
<path d="M0 0 C4.66738781 -0.01601412 9.33466741 -0.04876444 14.00198209 -0.07879388 C25.22845421 -0.14706878 36.4549531 -0.1868187 47.68157187 -0.22164181 C51.91803177 -0.23509243 56.1544855 -0.25012472 60.39094019 -0.26511209 C79.09447993 -0.33089497 97.79802747 -0.38700884 116.5016588 -0.41834104 C121.06156593 -0.42610853 125.62147292 -0.43395255 130.18137968 -0.4419378 C131.31453106 -0.44391365 132.44768245 -0.44588949 133.61517175 -0.4479252 C152.00140689 -0.48158689 170.38687658 -0.57348791 188.77276013 -0.68912215 C207.69101128 -0.8071245 226.60887075 -0.8721868 245.52748972 -0.88582641 C256.13356904 -0.89480223 266.7384689 -0.92684434 277.34418523 -1.01849306 C286.36683575 -1.0963288 295.38805134 -1.12619355 304.41100834 -1.09413535 C309.00947609 -1.07925492 313.60495353 -1.08662236 318.20298994 -1.15582788 C348.64064991 -1.58943326 348.64064991 -1.58943326 357.02815396 5.41070479 C359.3358228 7.74056819 361.34610713 10.1375414 363.21888709 12.82801509 C365.05181287 15.43055171 367.2016332 17.66498679 369.37156522 19.99092352 C370.06379179 20.78627509 370.75601835 21.58162665 371.46922147 22.40107977 C373.31614266 24.42424792 375.2128839 26.1696557 377.30906522 27.92842352 C380.8180607 30.87821653 383.87833574 34.14691676 386.93406522 37.55342352 C389.9506881 40.91539062 392.96242282 44.15090283 396.43406522 47.05342352 C400.45479325 50.41501581 403.876632 54.26053472 407.36765897 58.15107977 C409.92523036 60.9778692 412.51002056 63.60873044 415.43406522 66.05342352 C419.45479325 69.41501581 422.876632 73.26053472 426.36765897 77.15107977 C428.92523036 79.9778692 431.51002056 82.60873044 434.43406522 85.05342352 C437.9057348 87.95596694 440.91723272 91.1916192 443.93406522 94.55342352 C447.61057431 98.64760319 451.38464118 102.42857648 455.59422147 105.97529852 C459.71351282 109.50861849 463.45112207 113.34364733 466.87156522 117.55342352 C468.88861812 119.91485131 470.7100674 121.70583711 473.05906522 123.67842352 C476.64333911 126.72167493 479.80041212 130.05788438 482.93406522 133.55342352 C485.93101868 136.89317745 488.91853035 140.11219798 492.37156522 142.99092352 C496.65041119 146.56687899 500.27458496 150.66909499 504.00974882 154.79316962 C507.27430362 158.37128671 510.65288566 161.57888505 514.37547147 164.68232977 C517.60738337 167.61987398 520.45630354 170.90683222 523.37010038 174.15352118 C525.90743706 176.95766878 528.46740067 179.5697801 531.37156522 181.99092352 C535.65041119 185.56687899 539.27458496 189.66909499 543.00974882 193.79316962 C546.27430362 197.37128671 549.65288566 200.57888505 553.37547147 203.68232977 C556.60661459 206.61917523 559.45505031 209.90517686 562.36790311 213.15132391 C564.92537577 215.97805083 567.51010881 218.60880422 570.43406522 221.05342352 C573.90571909 223.95595381 576.91735218 227.19153235 579.93406522 230.55342352 C582.93119763 233.89302711 585.9185074 237.11217885 589.37156522 239.99092352 C593.65041119 243.56687899 597.27458496 247.66909499 601.00974882 251.79316962 C604.27430362 255.37128671 607.65288566 258.57888505 611.37547147 261.68232977 C614.60661459 264.61917523 617.45505031 267.90517686 620.36790311 271.15132391 C622.92537577 273.97805083 625.51010881 276.60880422 628.43406522 279.05342352 C632.44722253 282.40868619 635.86349636 286.24579938 639.34788358 290.12910712 C642.65258521 293.78145896 646.09904443 297.09255375 649.87547147 300.24873602 C653.3871792 303.18836104 653.3871792 303.18836104 653.68482556 305.50588568 C653.68518482 306.31344602 653.68554407 307.12100635 653.68591422 307.95303822 C653.69117748 308.8855629 653.69644074 309.81808758 653.7018635 310.77887058 C653.69746701 311.81232849 653.69307053 312.84578639 653.68854082 313.9105612 C653.69335053 315.55373175 653.69335053 315.55373175 653.69825742 317.23009765 C653.70663754 320.94472593 653.70060523 324.65919631 653.69476163 328.37382758 C653.69777873 331.04654999 653.70158453 333.71926068 653.7063542 336.39197946 C653.7151437 342.22601722 653.7164186 348.06001989 653.71285093 353.89406264 C653.70755922 362.57021148 653.71362404 371.24632616 653.72193386 379.92247128 C653.73720812 396.32235177 653.7388751 412.72221686 653.73641083 429.12210296 C653.73457994 441.79303521 653.7363335 454.4639624 653.74063528 467.13489401 C653.74123768 468.95379778 653.74183887 470.77270155 653.74243888 472.59160531 C653.74334612 475.3324742 653.74425479 478.07334309 653.74517123 480.81421197 C653.75360714 506.31648243 653.75793242 531.81875097 653.75376451 557.32102263 C653.75360813 558.28332826 653.75345176 559.24563388 653.75329064 560.23710029 C653.75248484 565.11463297 653.75163907 569.99216565 653.75077734 574.86969833 C653.75060625 575.83841343 653.75043517 576.80712852 653.75025889 577.80519862 C653.74991224 579.76418386 653.74956371 581.7231691 653.74921331 583.68215434 C653.74386253 614.12721127 653.75176558 644.5722392 653.77024686 675.01729071 C653.79098221 709.21571108 653.80168602 743.41411348 653.79767138 777.61254048 C653.79727604 781.26278341 653.79691449 784.91302633 653.796574 788.56326926 C653.79648326 789.46205876 653.79639253 790.36084826 653.79629905 791.28687381 C653.79513458 804.83705915 653.80177048 818.38722633 653.81238592 831.93740714 C653.82445945 847.36460334 653.82597274 862.79175964 653.81359575 878.21895646 C653.80698489 886.84420852 653.80855686 895.46936507 653.82218426 904.09460942 C653.83046817 909.8694195 653.8276804 915.64415852 653.816209 921.4189629 C653.80999086 924.70089232 653.80993968 927.98260148 653.82007233 931.26452641 C653.94475063 974.68403911 642.78745698 1011.35466144 612.07469022 1042.94795477 C604.3453384 1050.71156077 595.8321362 1056.93228531 586.43406522 1062.55342352 C585.80886991 1062.93111884 585.1836746 1063.30881415 584.53953397 1063.69795477 C582.85853208 1064.68608469 581.14588688 1065.61970262 579.43406522 1066.55342352 C578.47113554 1067.1180329 578.47113554 1067.1180329 577.48875272 1067.69404852 C571.71519837 1070.87252096 565.71909385 1072.85014022 559.43406522 1074.74092352 C558.60366727 1074.99084052 557.77326932 1075.24075751 556.9177078 1075.49824774 C549.21785415 1077.74015932 541.44684651 1079.56380678 533.43406522 1080.17842352 C532.52656522 1080.25318915 531.61906522 1080.32795477 530.68406522 1080.40498602 C526.27172115 1080.60651135 521.85100903 1080.55342352 517.43406522 1080.55342352 C517.43406522 1058.11342352 517.43406522 1035.67342352 517.43406522 1012.55342352 C523.70406522 1011.56342352 529.97406522 1010.57342352 536.43406522 1009.55342352 C543.08747873 1007.17284438 548.79386609 1004.81490732 554.43406522 1000.55342352 C555.10695585 1000.07389227 555.77984647 999.59436102 556.47312772 999.10029852 C572.56567847 987.26591412 580.08061528 972.82884261 583.0699473 953.52319342 C584.28239596 943.63438176 583.96374586 933.60527608 583.91508329 923.66163886 C583.91683066 920.98386377 583.9201711 918.306133 583.92543995 915.62836683 C583.93366946 909.83957392 583.92727325 904.05094677 583.91088712 898.2621733 C583.88659057 889.65472561 583.8855583 881.04738081 583.88905508 872.43990507 C583.8942921 857.95572253 583.88101603 843.47161336 583.85698545 828.98745215 C583.83327244 814.65779248 583.81791262 800.32816341 583.81357419 785.99848425 C583.81329924 785.10566537 583.81302428 784.21284649 583.81274099 783.2929725 C583.81138755 778.75832273 583.81018205 774.22367293 583.80903348 769.68902311 C583.80064419 737.61629597 583.77372934 705.54360869 583.73582304 673.47090399 C583.6990529 642.3234452 583.67073434 611.17599734 583.65379179 580.02852118 C583.65300263 578.58696787 583.65300263 578.58696787 583.65219753 577.11629227 C583.6469232 567.4646918 583.64181998 557.81309124 583.63684209 548.16149061 C583.62669875 528.5021563 583.61541374 508.84282271 583.60343778 489.18348944 C583.60288862 488.27969489 583.60233946 487.37590033 583.60177366 486.44471806 C583.56500538 426.14760329 583.50162863 365.85051068 583.43406522 305.55342352 C582.70759825 305.55103517 581.98113128 305.54864682 581.23265016 305.54618609 C563.48469242 305.48682478 545.73687757 305.41114152 527.98906648 305.31770861 C519.40604803 305.27290946 510.8230696 305.23345906 502.23997343 305.20698798 C494.75134386 305.18387834 487.26284266 305.15033815 479.77431518 305.10472196 C475.81608771 305.08096286 471.857986 305.0621216 467.89968908 305.05580962 C429.99249491 304.9874812 429.99249491 304.9874812 413.37156522 298.67842352 C412.66241971 298.41795233 411.95327421 298.15748114 411.22263944 297.88911688 C406.14096121 295.96366935 401.83871625 293.67989816 397.43406522 290.55342352 C396.60004179 290.05326727 395.76601835 289.55311102 394.90672147 289.03779852 C383.83392244 282.39101313 375.04532482 273.94929029 367.43406522 263.55342352 C366.67029569 262.54795477 366.67029569 262.54795477 365.89109647 261.52217352 C347.08276739 235.30144665 347.10784914 205.18189115 347.23127735 174.26511729 C347.24397475 170.53495352 347.24496989 166.80478476 347.24732816 163.07460272 C347.2534881 156.04516869 347.26982271 149.01579856 347.29002714 141.98639238 C347.31255939 133.96916152 347.32342265 125.95192723 347.33341801 117.93467247 C347.35419537 101.47421904 347.38926179 85.0138295 347.43406522 68.55342352 C299.61072885 68.63521462 251.78742227 68.72739208 203.96413328 68.83347514 C198.3165782 68.84599382 192.66902295 68.85842662 187.02146757 68.87080634 C185.89715352 68.87327233 184.77283948 68.87573832 183.61445531 68.87827905 C165.41606493 68.91798941 147.21766836 68.95074438 129.01925996 68.98092334 C110.34233845 69.01205087 91.66544322 69.05066586 72.98855126 69.09621358 C61.46639652 69.12407745 49.94426097 69.14611962 38.42208162 69.16068603 C30.51805616 69.17123814 22.61406789 69.18907122 14.71007046 69.21259056 C10.15172357 69.22594071 5.59342873 69.23611821 1.03506124 69.23763716 C-3.14387623 69.23910076 -7.32268848 69.2497731 -11.50158742 69.26755793 C-13.00784039 69.27238066 -14.51410853 69.27391639 -16.02036759 69.27170233 C-27.58187671 69.25750627 -38.58627811 69.7232002 -49.19093478 74.67842352 C-55.42239411 77.55342352 -55.42239411 77.55342352 -57.56593478 77.55342352 C-57.56593478 78.21342352 -57.56593478 78.87342352 -57.56593478 79.55342352 C-62.97769948 83.55342352 -62.97769948 83.55342352 -65.56593478 83.55342352 C-66.06093478 85.03842352 -66.06093478 85.03842352 -66.56593478 86.55342352 C-67.71558028 87.55685476 -68.91081795 88.50865817 -70.12843478 89.42842352 C-81.64970714 99.31854801 -86.87054783 114.84206648 -88.56593478 129.55342352 C-88.70714073 133.03727572 -88.70828828 136.51745156 -88.70459998 140.00382388 C-88.70744219 141.04856223 -88.71028441 142.09330058 -88.71321276 143.16969767 C-88.72155551 146.6814796 -88.72282765 150.19322852 -88.72415316 153.70501959 C-88.72871879 156.2436892 -88.73371882 158.78235805 -88.73911673 161.32102603 C-88.74986704 166.84613924 -88.75754161 172.37124361 -88.76251566 177.89636481 C-88.76992852 186.11200844 -88.78301326 194.32763619 -88.79726142 202.54327046 C-88.82106869 216.36345275 -88.84027425 230.18363786 -88.85686076 244.00383055 C-88.87329944 257.68832978 -88.89178121 271.37282373 -88.91299403 285.05731642 C-88.91431163 285.90805217 -88.91562924 286.75878791 -88.91698678 287.63530353 C-88.92368882 291.95572844 -88.9304274 296.2761533 -88.93718003 300.59657813 C-88.98494809 331.20124739 -89.02813169 361.80592157 -89.06862032 392.41060126 C-89.10796593 422.1433523 -89.14938742 451.87609926 -89.19362032 481.60884345 C-89.19498285 482.52527309 -89.19634538 483.44170274 -89.1977492 484.38590298 C-89.21143453 493.58903325 -89.22516207 502.79216346 -89.23892054 511.99529363 C-89.26694738 530.74327199 -89.29469246 549.49125077 -89.32226717 568.2392298 C-89.32353537 569.10123897 -89.32480357 569.96324814 -89.3261102 570.8513788 C-89.41077172 628.41872042 -89.48884444 685.98607133 -89.56593478 743.55342352 C-98.41475868 743.57654941 -107.26357225 743.59433986 -116.11241972 743.6052357 C-120.22087762 743.61046399 -124.32931491 743.61756065 -128.43776095 743.62886298 C-132.39940306 743.63969378 -136.3610253 743.64570077 -140.32268107 743.64830077 C-141.83741789 743.65015467 -143.35215356 743.65377462 -144.86688197 743.65915358 C-146.9813529 743.66636659 -149.09574072 743.66741436 -151.21022189 743.66694891 C-152.41601397 743.66916953 -153.62180605 743.67139014 -154.86413729 743.67367804 C-157.56593478 743.55342352 -157.56593478 743.55342352 -158.56593478 742.55342352 C-158.66382601 741.20383085 -158.69267426 739.84915426 -158.69358528 738.49601632 C-158.69660125 737.61447512 -158.69961721 736.73293392 -158.70272458 735.82467934 C-158.7009551 734.84314217 -158.69918563 733.861605 -158.69736254 732.85032427 C-158.69941518 731.8134358 -158.70146781 730.77654732 -158.70358264 729.70823798 C-158.70929766 726.18682891 -158.70778988 722.6654584 -158.70637667 719.14404547 C-158.70895778 716.61243398 -158.71197022 714.0808229 -158.71538007 711.5492124 C-158.72263206 705.29062307 -158.72515419 699.03204605 -158.72570913 692.77345301 C-158.7266208 685.28090331 -158.73328275 677.78836155 -158.74005595 670.29581525 C-158.75614364 652.17671836 -158.76202359 634.05762228 -158.7668047 615.93851954 C-158.76913917 607.36501518 -158.77274179 598.79151149 -158.77650008 590.21800765 C-158.78934171 560.86770734 -158.80005747 531.51740742 -158.80350268 502.16710436 C-158.80372431 500.3232157 -158.8039461 498.47932704 -158.80416803 496.63543837 C-158.80438867 494.78706905 -158.80460915 492.93869974 -158.80482948 491.09033042 C-158.80527203 487.38214596 -158.80571915 483.6739615 -158.80616915 479.96577704 C-158.80627854 479.04635717 -158.80638793 478.12693729 -158.80650064 477.17965621 C-158.81012727 447.40050719 -158.82602929 417.62138257 -158.84935952 387.8422429 C-158.87398084 356.35744606 -158.88767672 324.87266316 -158.8888706 293.38785642 C-158.88904205 289.92801364 -158.88925747 286.46817086 -158.88950503 283.00832808 C-158.8895608 282.15641919 -158.88961657 281.30451031 -158.88967402 280.426786 C-158.89082289 266.7389868 -158.90183152 253.05121268 -158.91639208 239.36342194 C-158.93079168 225.58799801 -158.9339747 211.81260608 -158.92595211 198.03717669 C-158.92151109 189.8629474 -158.92529473 181.68882172 -158.94119061 173.51460614 C-158.95215514 167.39418386 -158.94725101 161.27386713 -158.93641874 155.15344677 C-158.93446783 152.68947489 -158.93751189 150.22549248 -158.9462631 147.76153537 C-159.03811808 120.13342191 -155.15035403 96.25187667 -142.56593478 71.55342352 C-142.04902071 70.51057196 -141.53210665 69.4677204 -140.99952853 68.39326727 C-126.14996205 39.62476111 -96.10041721 16.39403257 -65.66083711 6.5524928 C-44.14602062 -0.10158909 -22.28964413 0.06167059 0 0 Z " fill="#040404" transform="translate(292.5659347772598,-0.5534235239028931)"/>
<path d="M0 0 C14.86544345 -0.04692712 29.73088111 -0.08208957 44.59638309 -0.10362434 C51.50023451 -0.11389349 58.40403964 -0.12786931 65.30786133 -0.15087891 C71.97982348 -0.17310495 78.6517278 -0.18459435 85.32372856 -0.18975449 C87.85960073 -0.19342832 90.39547051 -0.20060195 92.9313221 -0.21146011 C114.77123774 -0.30119235 131.78844101 1.17562648 151.75 10.4375 C152.55469727 10.80883057 153.35939453 11.18016113 154.18847656 11.56274414 C159.19942985 13.94424378 163.6609837 16.52530647 168 20 C168 20.66 168 21.32 168 22 C168.60215332 22.26393555 169.20430664 22.52787109 169.82470703 22.79980469 C179.64361748 28.21728659 186.83488667 43.81610905 190 54 C196.40756404 77.49440148 195.75622061 106.39242042 183.8515625 128.0234375 C181.18533394 132.30965303 178.2842236 136.17442086 175 140 C174.46503906 140.72445312 173.93007813 141.44890625 173.37890625 142.1953125 C167.19604727 150.09945739 158.69144589 154.34878564 150 159 C149.0615625 159.52851562 148.123125 160.05703125 147.15625 160.6015625 C129.05075286 169.94079045 107.29304547 168.65621561 87.49517822 168.73822021 C83.7062847 168.75809942 79.91763343 168.80002906 76.12890625 168.83984375 C68.75267072 168.91423889 61.37653958 168.96507119 54 169 C54.00666183 170.21078217 54.01332367 171.42156433 54.02018738 172.66903687 C54.08090376 184.0586819 54.12592699 195.44829427 54.15543652 206.83806419 C54.17111747 212.69419454 54.19240003 218.55019463 54.22631836 224.40625 C54.25882519 230.05371004 54.27683469 235.7010445 54.28463173 241.34859085 C54.29019087 243.50725915 54.30104592 245.66592029 54.31719017 247.82453537 C54.33884907 250.83939418 54.34197177 253.85372873 54.34057617 256.86865234 C54.351362 257.76848343 54.36214783 258.66831451 54.3732605 259.59541321 C54.36076355 262.07699585 54.36076355 262.07699585 54 266 C50.69600224 268.20266517 49.81504297 268.23293669 45.99365234 268.15112305 C44.97604828 268.13417892 43.95844421 268.1172348 42.91000366 268.09977722 C41.81306183 268.07071793 40.71612 268.04165863 39.5859375 268.01171875 C38.46055573 267.98906448 37.33517395 267.96641022 36.1756897 267.94306946 C33.79670685 267.89309689 31.41782449 267.83812983 29.0390625 267.77856445 C25.38297072 267.6876981 21.72681848 267.61307348 18.0703125 267.54101562 C15.76299973 267.49053897 13.45570695 267.43913836 11.1484375 267.38671875 C10.0474472 267.36373215 8.94645691 267.34074554 7.81210327 267.31706238 C6.80080353 267.29066177 5.78950378 267.26426117 4.74755859 267.23706055 C3.40544815 267.20469551 3.40544815 267.20469551 2.03622437 267.17167664 C0 267 0 267 -1 266 C-1.09742896 264.59540455 -1.1255543 263.18593406 -1.12584114 261.77796364 C-1.12844889 260.86168965 -1.13105664 259.94541566 -1.13374341 259.00137579 C-1.13151268 257.98301559 -1.12928196 256.96465539 -1.12698364 255.91543579 C-1.12854363 254.84272379 -1.13010362 253.77001179 -1.13171089 252.66479337 C-1.13572601 249.04034992 -1.13252925 245.41594774 -1.12939453 241.79150391 C-1.13074836 239.20512365 -1.13252819 236.61874359 -1.13470459 234.03236389 C-1.13916319 227.71817226 -1.13818534 221.40399248 -1.13529195 215.08980037 C-1.13303787 209.95922276 -1.13272542 204.82864849 -1.13381577 199.69807053 C-1.133969 198.96915218 -1.13412223 198.24023383 -1.13428011 197.48922705 C-1.13459982 196.00863477 -1.13492403 194.5280425 -1.1352527 193.04745023 C-1.13810786 179.14639818 -1.13482012 165.24535271 -1.12945233 151.34430175 C-1.12498614 139.40856765 -1.12575864 127.47284329 -1.13037109 115.53710938 C-1.13571946 101.69049207 -1.13783118 87.84388055 -1.13475883 73.99726236 C-1.13444027 72.52136191 -1.1341259 71.04546146 -1.13381577 69.569561 C-1.13366149 68.84331713 -1.13350721 68.11707325 -1.13334826 67.36882199 C-1.13248376 62.24359746 -1.1339446 57.11837658 -1.13629532 51.99315262 C-1.13938862 45.09696466 -1.13719435 38.20079543 -1.13140106 31.3046093 C-1.13007452 28.76770369 -1.1304658 26.23079653 -1.13266373 23.69389153 C-1.13537939 20.24208364 -1.13198887 16.79033553 -1.12698364 13.33853149 C-1.12921436 12.32463274 -1.13144509 11.31073398 -1.13374341 10.26611102 C-1.13113566 9.34462153 -1.12852791 8.42313205 -1.12584114 7.47371864 C-1.12567879 6.6764683 -1.12551644 5.87921796 -1.12534916 5.05780852 C-1 3 -1 3 0 0 Z M54 42 C54 69.72 54 97.44 54 126 C65.199375 126.061875 65.199375 126.061875 76.625 126.125 C78.95127441 126.14320801 81.27754883 126.16141602 83.67431641 126.18017578 C105.96000504 126.77055421 105.96000504 126.77055421 125.625 117.5625 C126.35976563 116.98628906 127.09453125 116.41007813 127.8515625 115.81640625 C135.22537594 109.58218216 138.16022023 101.99178207 139.29980469 92.50390625 C140.21791123 80.10713769 139.91538241 65.74097137 132.05078125 55.44921875 C129.82086724 53.32339408 127.58736224 51.66822104 125 50 C123.77990234 49.14148438 123.77990234 49.14148438 122.53515625 48.265625 C108.94075076 39.67968469 90.44041759 41.74432541 75 41.875 C64.605 41.936875 64.605 41.936875 54 42 Z " fill="#070707" transform="translate(486,804)"/>
<path d="M0 0 C14.66595665 -0.07051354 29.33189045 -0.12319327 43.99798298 -0.15543652 C50.80982998 -0.17081476 57.62157082 -0.1917279 64.43334961 -0.22631836 C71.02102943 -0.25975449 77.60864094 -0.27691037 84.1964016 -0.28463173 C86.69548452 -0.29012634 89.19456222 -0.30085413 91.69359779 -0.31719017 C128.47608032 -0.54782352 128.47608032 -0.54782352 145 7.25 C145.87809326 7.64695068 146.75618652 8.04390137 147.66088867 8.45288086 C166.41409197 17.11021254 180.864461 30.80854413 188.15136719 50.42138672 C188.79533544 52.27149523 189.39841414 54.13567947 190 56 C190.33902344 57.01449219 190.67804688 58.02898438 191.02734375 59.07421875 C196.93256612 80.7629848 194.48863825 107.1064318 184.13769531 127.03027344 C174.19159029 144.25026815 156.82660959 158.96544879 137.50390625 164.359375 C127.77272954 166.79556292 118.16411783 168.12788497 108.140625 168.31640625 C106.72484161 168.3475779 106.72484161 168.3475779 105.28045654 168.37937927 C103.28353017 168.42248365 101.28655876 168.46354432 99.28955078 168.50268555 C96.30098537 168.56149667 93.31262156 168.62684602 90.32421875 168.69335938 C88.36719579 168.73476867 86.41016469 168.77579533 84.453125 168.81640625 C83.1566806 168.84451134 83.1566806 168.84451134 81.83404541 168.8731842 C72.55229822 169.05093317 63.28976672 169 54 169 C53.67 201.34 53.34 233.68 53 267 C13.53571429 268.16071429 13.53571429 268.16071429 0 267 C-0.94123399 264.17629804 -1.12524348 262.46641453 -1.12584114 259.54469204 C-1.12844889 258.62730265 -1.13105664 257.70991326 -1.13374341 256.7647242 C-1.13151268 255.75539851 -1.12928196 254.74607282 -1.12698364 253.7061615 C-1.12854363 252.63511864 -1.13010362 251.56407578 -1.13171089 250.46057707 C-1.13571538 246.85383121 -1.13253335 243.24712707 -1.12939453 239.64038086 C-1.13074881 237.06193517 -1.13252889 234.48348968 -1.13470459 231.90504456 C-1.13915728 225.6181998 -1.13818808 219.33136697 -1.13529195 213.04452174 C-1.13303616 207.93686667 -1.13272616 202.82921495 -1.13381577 197.72155952 C-1.133969 196.9953988 -1.13412223 196.26923807 -1.13428011 195.52107247 C-1.13459982 194.04603453 -1.13492404 192.57099659 -1.1352527 191.09595866 C-1.13810597 177.25644726 -1.13482275 163.41694248 -1.12945233 149.57743216 C-1.12498349 137.69313831 -1.12576118 125.80885422 -1.13037109 113.92456055 C-1.13571792 100.13397214 -1.13783229 86.34338954 -1.13475883 72.55280024 C-1.13444027 71.0834084 -1.1341259 69.61401655 -1.13381577 68.14462471 C-1.13366149 67.42159421 -1.13350721 66.6985637 -1.13334826 65.95362319 C-1.13248351 60.84944608 -1.13394508 55.74527265 -1.13629532 50.64109612 C-1.1393864 43.776895 -1.13719799 36.9127127 -1.13140106 30.04851341 C-1.13007362 27.52247397 -1.13046732 24.99643297 -1.13266373 22.47039413 C-1.13537578 19.03585966 -1.13199339 15.60138544 -1.12698364 12.16685486 C-1.12921436 11.15529845 -1.13144509 10.14374204 -1.13374341 9.1015324 C-1.13113566 8.18675076 -1.12852791 7.27196912 -1.12584114 6.32946682 C-1.12567879 5.53595867 -1.12551644 4.74245051 -1.12534916 3.92489666 C-1 2 -1 2 0 0 Z M53 42 C53 69.72 53 97.44 53 126 C60.651875 126.04125 68.30375 126.0825 76.1875 126.125 C79.76887817 126.15231201 79.76887817 126.15231201 83.42260742 126.18017578 C103.53981966 126.8241632 103.53981966 126.8241632 122 120 C122.75023437 119.51660156 123.50046875 119.03320312 124.2734375 118.53515625 C131.13327008 113.69225119 135.693877 108.07936722 137.80859375 99.85546875 C138.37457393 96.5649771 138.74490036 93.32844295 139 90 C139.07089844 89.10539063 139.14179688 88.21078125 139.21484375 87.2890625 C139.4265087 81.65030811 138.70356653 76.22856314 137.75 70.6875 C137.64083252 70.0174292 137.53166504 69.3473584 137.41918945 68.65698242 C135.55986367 58.87997687 128.6162544 52.87765739 120.75390625 47.44921875 C107.29110655 39.75294709 88.95085973 41.74846861 74 41.875 C63.605 41.936875 63.605 41.936875 53 42 Z " fill="#040404" transform="translate(35,804)"/>
<path d="M0 0 C27.46346607 -0.54351446 54.75934987 4.97484342 75.25390625 24.4609375 C89.61332318 39.55979284 95.14828674 59.84644325 94.75 80.33105469 C93.60578002 101.48926027 84.228791 120.79056119 69.34228516 135.57324219 C67.65823905 137.25569607 66.01253646 138.97112243 64.3671875 140.69140625 C57.64100691 147.65678507 50.82145587 153.65919385 42.79296875 159.12109375 C40.63289313 160.76147851 38.48844884 162.41942948 36.3515625 164.08984375 C34.79296875 165.12109375 34.79296875 165.12109375 32.79296875 165.12109375 C32.79296875 165.78109375 32.79296875 166.44109375 32.79296875 167.12109375 C31.29931641 168.33862305 31.29931641 168.33862305 29.20703125 169.6953125 C28.06548584 170.44397583 28.06548584 170.44397583 26.90087891 171.20776367 C26.08151855 171.7360376 25.2621582 172.26431152 24.41796875 172.80859375 C22.75081416 173.90159989 21.08414343 174.99534442 19.41796875 176.08984375 C18.61359375 176.61578125 17.80921875 177.14171875 16.98046875 177.68359375 C9.64803186 182.50205228 2.60763504 187.69731661 -4.3828125 192.99609375 C-6.07261779 194.26753784 -7.77463113 195.52334511 -9.5 196.74609375 C-20.5877797 204.63836247 -25.92899452 214.00894683 -29.20703125 227.12109375 C10.72296875 227.12109375 50.65296875 227.12109375 91.79296875 227.12109375 C91.79296875 241.64109375 91.79296875 256.16109375 91.79296875 271.12109375 C32.80415298 272.87540797 -26.21256349 272.41182632 -85.20703125 271.12109375 C-85.2572078 266.39291863 -85.29310992 261.66490512 -85.31689453 256.93652344 C-85.32683038 255.33460789 -85.34038372 253.73270986 -85.35791016 252.13085938 C-85.66182931 223.59821373 -79.14771177 199.11436151 -59.20703125 178.12109375 C-56.6517008 175.62111342 -54.01170143 173.33501647 -51.20703125 171.12109375 C-50.4078125 170.47011719 -49.60859375 169.81914063 -48.78515625 169.1484375 C-42.5084726 164.12109375 -42.5084726 164.12109375 -40.20703125 164.12109375 C-39.87703125 163.13109375 -39.54703125 162.14109375 -39.20703125 161.12109375 C-37.42871094 159.63476562 -37.42871094 159.63476562 -35.12890625 158.08984375 C-33.88173828 157.24486328 -33.88173828 157.24486328 -32.609375 156.3828125 C-31.73410156 155.80144531 -30.85882813 155.22007812 -29.95703125 154.62109375 C-28.66732422 153.74904297 -28.66732422 153.74904297 -27.3515625 152.859375 C-24.12748959 150.68846612 -20.92111583 148.53795085 -17.56347656 146.57788086 C-15.06523161 145.16118505 -15.06523161 145.16118505 -12.89453125 142.78125 C-9.61256778 139.5326786 -6.04061357 137.1084211 -2.20703125 134.55859375 C-0.80996314 133.62163017 0.58589839 132.68286468 1.98046875 131.7421875 C2.63660156 131.29987793 3.29273438 130.85756836 3.96875 130.40185547 C5.58712046 129.26561732 7.13429159 128.02944649 8.66796875 126.78125 C10.79296875 125.12109375 10.79296875 125.12109375 12.79296875 125.12109375 C12.79296875 124.46109375 12.79296875 123.80109375 12.79296875 123.12109375 C14.58621606 121.73431583 16.42979596 120.41240163 18.29296875 119.12109375 C28.29541288 111.87322321 37.69667534 100.69885422 39.79296875 88.12109375 C40.50232151 76.93425183 40.0887997 68.22573724 34.16796875 58.43359375 C28.29521211 52.71538333 22.0403556 48.13215694 13.79296875 47.12109375 C12.86097656 46.98960937 11.92898438 46.858125 10.96875 46.72265625 C-7.34128543 44.69571506 -23.42931114 48.94938233 -37.95703125 60.30859375 C-43.15871783 64.75248067 -47.72482169 69.61328191 -52.01953125 74.93359375 C-52.80972656 75.90941406 -53.59992188 76.88523437 -54.4140625 77.890625 C-55.00574219 78.62667969 -55.59742188 79.36273437 -56.20703125 80.12109375 C-59.9099971 79.86151531 -61.72666243 79.58301909 -64.4453125 76.96875 C-65.12980469 76.04964844 -65.81429688 75.13054687 -66.51953125 74.18359375 C-70.84328456 68.57792363 -75.43701436 63.34772764 -80.20703125 58.12109375 C-81.89580898 56.24724449 -83.58334377 54.37227419 -85.26953125 52.49609375 C-86.02363281 51.65820312 -86.77773437 50.8203125 -87.5546875 49.95703125 C-88.37259766 49.04824219 -88.37259766 49.04824219 -89.20703125 48.12109375 C-85.7524199 40.71835514 -80.01586388 35.70746045 -74.20703125 30.12109375 C-72.53792616 28.45686908 -70.87090385 26.79054981 -69.20703125 25.12109375 C-51.0099372 7.32837957 -24.63519388 0.93019611 0 0 Z " fill="#050505" transform="translate(341.20703125,799.87890625)"/>
<path d="M0 0 C0.66 0.33 1.32 0.66 2 1 C-5.26 8.26 -12.52 15.52 -20 23 C-20 20 -20 20 -17.76953125 17.4765625 C-16.79134265 16.51833693 -15.80529119 15.56808791 -14.8125 14.625 C-14.08836914 13.92117188 -14.08836914 13.92117188 -13.34960938 13.203125 C-12.38066986 12.26149787 -11.40906985 11.32260059 -10.43481445 10.38647461 C-8.2612784 8.28616642 -6.13168943 6.14263989 -4 4 C-2.66666667 2.66666667 -1.33333333 1.33333333 0 0 Z " fill="#5C5C5C" transform="translate(276,821)"/>
<path d="M0 0 C0.66 0.33 1.32 0.66 2 1 C-2.95 5.95 -7.9 10.9 -13 16 C-13.66 15.67 -14.32 15.34 -15 15 C-10.72226048 9.75976909 -6.16137595 5.36068517 -1 1 C-0.67 0.67 -0.34 0.34 0 0 Z " fill="#676767" transform="translate(291,970)"/>
<path d="M0 0 C0.66 0.33 1.32 0.66 2 1 C-2.62 5.62 -7.24 10.24 -12 15 C-12.66 14.67 -13.32 14.34 -14 14 C-9.33333333 9.33333333 -4.66666667 4.66666667 0 0 Z " fill="#606060" transform="translate(183,30)"/>
</svg>
